<svg width="221" height="49" viewBox="0 0 221 49" fill="none" xmlns="http://www.w3.org/2000/svg">
<path d="M49.052 36.18C48.332 36.18 47.756 35.976 47.324 35.568C46.916 35.136 46.712 34.572 46.712 33.876V14.436H40.16C38.72 14.436 38 13.8 38 12.528C38 11.256 38.72 10.62 40.16 10.62H57.908C59.348 10.62 60.068 11.256 60.068 12.528C60.068 13.8 59.348 14.436 57.908 14.436H51.356V33.876C51.356 34.572 51.14 35.136 50.708 35.568C50.3 35.976 49.748 36.18 49.052 36.18ZM69.4336 18.036C70.0576 17.988 70.5496 18.12 70.9096 18.432C71.2696 18.744 71.4496 19.212 71.4496 19.836C71.4496 20.484 71.2936 20.964 70.9816 21.276C70.6696 21.588 70.1056 21.792 69.2896 21.888L68.2096 21.996C66.7936 22.14 65.7496 22.62 65.0776 23.436C64.4296 24.252 64.1056 25.272 64.1056 26.496V34.056C64.1056 34.752 63.8896 35.292 63.4576 35.676C63.0256 36.036 62.4856 36.216 61.8376 36.216C61.1896 36.216 60.6496 36.036 60.2176 35.676C59.8096 35.292 59.6056 34.752 59.6056 34.056V20.124C59.6056 19.452 59.8096 18.936 60.2176 18.576C60.6496 18.216 61.1776 18.036 61.8016 18.036C62.4256 18.036 62.9296 18.216 63.3136 18.576C63.6976 18.912 63.8896 19.404 63.8896 20.052V21.492C64.3456 20.436 65.0176 19.62 65.9056 19.044C66.8176 18.468 67.8256 18.144 68.9296 18.072L69.4336 18.036ZM80.9486 17.964C83.3966 17.964 85.2086 18.576 86.3846 19.8C87.5846 21 88.1846 22.836 88.1846 25.308V34.092C88.1846 34.74 87.9926 35.256 87.6086 35.64C87.2246 36 86.6966 36.18 86.0246 36.18C85.4006 36.18 84.8846 35.988 84.4766 35.604C84.0926 35.22 83.9006 34.716 83.9006 34.092V33.3C83.4926 34.236 82.8446 34.968 81.9566 35.496C81.0926 36.024 80.0846 36.288 78.9326 36.288C77.7566 36.288 76.6886 36.048 75.7286 35.568C74.7686 35.088 74.0126 34.428 73.4606 33.588C72.9086 32.748 72.6326 31.812 72.6326 30.78C72.6326 29.484 72.9566 28.464 73.6046 27.72C74.2766 26.976 75.3566 26.436 76.8446 26.1C78.3326 25.764 80.3846 25.596 83.0006 25.596H83.9006V24.768C83.9006 23.592 83.6486 22.74 83.1446 22.212C82.6406 21.66 81.8246 21.384 80.6966 21.384C80.0006 21.384 79.2926 21.492 78.5726 21.708C77.8526 21.9 77.0006 22.188 76.0166 22.572C75.3926 22.884 74.9366 23.04 74.6486 23.04C74.2166 23.04 73.8566 22.884 73.5686 22.572C73.3046 22.26 73.1726 21.852 73.1726 21.348C73.1726 20.94 73.2686 20.592 73.4606 20.304C73.6766 19.992 74.0246 19.704 74.5046 19.44C75.3446 18.984 76.3406 18.624 77.4926 18.36C78.6686 18.096 79.8206 17.964 80.9486 17.964ZM79.8326 33.048C81.0326 33.048 82.0046 32.652 82.7486 31.86C83.5166 31.044 83.9006 30 83.9006 28.728V27.972H83.2526C81.6446 27.972 80.3966 28.044 79.5086 28.188C78.6206 28.332 77.9846 28.584 77.6006 28.944C77.2166 29.304 77.0246 29.796 77.0246 30.42C77.0246 31.188 77.2886 31.824 77.8166 32.328C78.3686 32.808 79.0406 33.048 79.8326 33.048ZM105.034 19.332C105.226 18.9 105.478 18.576 105.79 18.36C106.126 18.144 106.486 18.036 106.87 18.036C107.422 18.036 107.914 18.228 108.346 18.612C108.802 18.972 109.03 19.428 109.03 19.98C109.03 20.268 108.958 20.556 108.814 20.844L102.154 34.776C101.938 35.232 101.626 35.58 101.218 35.82C100.834 36.06 100.402 36.18 99.922 36.18C99.466 36.18 99.022 36.06 98.59 35.82C98.182 35.58 97.87 35.232 97.654 34.776L90.958 20.844C90.838 20.604 90.778 20.328 90.778 20.016C90.778 19.464 91.006 18.996 91.462 18.612C91.942 18.228 92.482 18.036 93.082 18.036C93.946 18.036 94.582 18.456 94.99 19.296L100.03 30.42L105.034 19.332ZM125.358 31.176C125.766 31.176 126.09 31.332 126.33 31.644C126.594 31.956 126.726 32.376 126.726 32.904C126.726 33.648 126.282 34.272 125.394 34.776C124.578 35.232 123.654 35.604 122.622 35.892C121.59 36.156 120.606 36.288 119.67 36.288C116.838 36.288 114.594 35.472 112.938 33.84C111.282 32.208 110.454 29.976 110.454 27.144C110.454 25.344 110.814 23.748 111.534 22.356C112.254 20.964 113.262 19.884 114.558 19.116C115.878 18.348 117.366 17.964 119.022 17.964C120.606 17.964 121.986 18.312 123.162 19.008C124.338 19.704 125.25 20.688 125.898 21.96C126.546 23.232 126.87 24.732 126.87 26.46C126.87 27.492 126.414 28.008 125.502 28.008H114.882C115.026 29.664 115.494 30.888 116.286 31.68C117.078 32.448 118.23 32.832 119.742 32.832C120.51 32.832 121.182 32.736 121.758 32.544C122.358 32.352 123.03 32.088 123.774 31.752C124.494 31.368 125.022 31.176 125.358 31.176ZM119.13 21.132C117.906 21.132 116.922 21.516 116.178 22.284C115.458 23.052 115.026 24.156 114.882 25.596H123.018C122.97 24.132 122.61 23.028 121.938 22.284C121.266 21.516 120.33 21.132 119.13 21.132ZM132.783 36.216C132.135 36.216 131.595 36.036 131.163 35.676C130.755 35.292 130.551 34.752 130.551 34.056V12.564C130.551 11.868 130.755 11.34 131.163 10.98C131.595 10.62 132.135 10.44 132.783 10.44C133.431 10.44 133.971 10.62 134.403 10.98C134.835 11.34 135.051 11.868 135.051 12.564V34.056C135.051 34.752 134.835 35.292 134.403 35.676C133.971 36.036 133.431 36.216 132.783 36.216ZM141.924 36.216C141.276 36.216 140.736 36.036 140.304 35.676C139.896 35.292 139.692 34.752 139.692 34.056V20.16C139.692 19.464 139.896 18.936 140.304 18.576C140.736 18.216 141.276 18.036 141.924 18.036C142.572 18.036 143.112 18.216 143.544 18.576C143.976 18.936 144.192 19.464 144.192 20.16V34.056C144.192 34.752 143.976 35.292 143.544 35.676C143.112 36.036 142.572 36.216 141.924 36.216ZM141.924 14.832C141.108 14.832 140.46 14.616 139.98 14.184C139.5 13.728 139.26 13.14 139.26 12.42C139.26 11.7 139.5 11.124 139.98 10.692C140.46 10.26 141.108 10.044 141.924 10.044C142.716 10.044 143.352 10.26 143.832 10.692C144.336 11.124 144.588 11.7 144.588 12.42C144.588 13.14 144.348 13.728 143.868 14.184C143.388 14.616 142.74 14.832 141.924 14.832ZM159.056 17.964C161.168 17.964 162.74 18.564 163.772 19.764C164.804 20.964 165.32 22.776 165.32 25.2V34.056C165.32 34.728 165.116 35.256 164.708 35.64C164.324 36.024 163.784 36.216 163.088 36.216C162.392 36.216 161.84 36.024 161.432 35.64C161.024 35.256 160.82 34.728 160.82 34.056V25.452C160.82 24.084 160.556 23.088 160.028 22.464C159.524 21.84 158.72 21.528 157.616 21.528C156.32 21.528 155.276 21.936 154.484 22.752C153.716 23.568 153.332 24.66 153.332 26.028V34.056C153.332 34.728 153.128 35.256 152.72 35.64C152.312 36.024 151.76 36.216 151.064 36.216C150.368 36.216 149.816 36.024 149.408 35.64C149.024 35.256 148.832 34.728 148.832 34.056V20.124C148.832 19.5 149.036 18.996 149.444 18.612C149.852 18.228 150.404 18.036 151.1 18.036C151.724 18.036 152.228 18.228 152.612 18.612C153.02 18.972 153.224 19.452 153.224 20.052V21.024C153.824 20.04 154.628 19.284 155.636 18.756C156.644 18.228 157.784 17.964 159.056 17.964ZM177.523 17.964C179.971 17.964 181.783 18.576 182.959 19.8C184.159 21 184.759 22.836 184.759 25.308V34.092C184.759 34.74 184.567 35.256 184.183 35.64C183.799 36 183.271 36.18 182.599 36.18C181.975 36.18 181.459 35.988 181.051 35.604C180.667 35.22 180.475 34.716 180.475 34.092V33.3C180.067 34.236 179.419 34.968 178.531 35.496C177.667 36.024 176.659 36.288 175.507 36.288C174.331 36.288 173.263 36.048 172.303 35.568C171.343 35.088 170.587 34.428 170.035 33.588C169.483 32.748 169.207 31.812 169.207 30.78C169.207 29.484 169.531 28.464 170.179 27.72C170.851 26.976 171.931 26.436 173.419 26.1C174.907 25.764 176.959 25.596 179.575 25.596H180.475V24.768C180.475 23.592 180.223 22.74 179.719 22.212C179.215 21.66 178.399 21.384 177.271 21.384C176.575 21.384 175.867 21.492 175.147 21.708C174.427 21.9 173.575 22.188 172.591 22.572C171.967 22.884 171.511 23.04 171.223 23.04C170.791 23.04 170.431 22.884 170.143 22.572C169.879 22.26 169.747 21.852 169.747 21.348C169.747 20.94 169.843 20.592 170.035 20.304C170.251 19.992 170.599 19.704 171.079 19.44C171.919 18.984 172.915 18.624 174.067 18.36C175.243 18.096 176.395 17.964 177.523 17.964ZM176.407 33.048C177.607 33.048 178.579 32.652 179.323 31.86C180.091 31.044 180.475 30 180.475 28.728V27.972H179.827C178.219 27.972 176.971 28.044 176.083 28.188C175.195 28.332 174.559 28.584 174.175 28.944C173.791 29.304 173.599 29.796 173.599 30.42C173.599 31.188 173.863 31.824 174.391 32.328C174.943 32.808 175.615 33.048 176.407 33.048ZM199.16 18.036C199.784 17.988 200.276 18.12 200.636 18.432C200.996 18.744 201.176 19.212 201.176 19.836C201.176 20.484 201.02 20.964 200.708 21.276C200.396 21.588 199.832 21.792 199.016 21.888L197.936 21.996C196.52 22.14 195.476 22.62 194.804 23.436C194.156 24.252 193.832 25.272 193.832 26.496V34.056C193.832 34.752 193.616 35.292 193.184 35.676C192.752 36.036 192.212 36.216 191.564 36.216C190.916 36.216 190.376 36.036 189.944 35.676C189.536 35.292 189.332 34.752 189.332 34.056V20.124C189.332 19.452 189.536 18.936 189.944 18.576C190.376 18.216 190.904 18.036 191.528 18.036C192.152 18.036 192.656 18.216 193.04 18.576C193.424 18.912 193.616 19.404 193.616 20.052V21.492C194.072 20.436 194.744 19.62 195.632 19.044C196.544 18.468 197.552 18.144 198.656 18.072L199.16 18.036ZM216.479 19.332C216.671 18.9 216.923 18.588 217.235 18.396C217.571 18.18 217.931 18.072 218.315 18.072C218.867 18.072 219.359 18.264 219.791 18.648C220.247 19.008 220.475 19.464 220.475 20.016C220.475 20.28 220.403 20.556 220.259 20.844L210.431 41.436C210.023 42.252 209.387 42.66 208.523 42.66C207.971 42.66 207.479 42.48 207.047 42.12C206.639 41.784 206.435 41.352 206.435 40.824C206.435 40.56 206.507 40.26 206.651 39.924L209.099 34.776L202.403 20.844C202.283 20.604 202.223 20.328 202.223 20.016C202.223 19.464 202.451 18.996 202.907 18.612C203.387 18.228 203.927 18.036 204.527 18.036C204.935 18.036 205.307 18.144 205.643 18.36C205.979 18.552 206.243 18.864 206.435 19.296L211.475 30.42L216.479 19.332Z" fill="black"/>
<path d="M20.2559 3C20.2559 1.34315 18.9127 0 17.2559 0C15.599 0 14.2559 1.34315 14.2559 3H20.2559ZM14.2559 3V36H20.2559V3H14.2559Z" fill="url(#paint0_linear)"/>
<path d="M8.49316 34.25H26.4932" stroke="#FEF92F" stroke-width="4"/>
<path d="M2 22V22C9.20685 11.4299 24.7931 11.4299 32 22V22" stroke="url(#paint1_linear)" stroke-width="4"/>
<defs>
<linearGradient id="paint0_linear" x1="17.7559" y1="3" x2="17.7559" y2="36" gradientUnits="userSpaceOnUse">
<stop stop-color="#FFBF00"/>
<stop offset="1" stop-color="#FEFE33"/>
</linearGradient>
<linearGradient id="paint1_linear" x1="17" y1="0" x2="17" y2="22" gradientUnits="userSpaceOnUse">
<stop stop-color="#FFC202"/>
<stop offset="1" stop-color="#FEFE33"/>
</linearGradient>
</defs>
</svg>
